<svg width="44" height="44" viewBox="0 0 44 44" fill="none" xmlns="http://www.w3.org/2000/svg">
<path d="M21.9986 11.0047C15.9182 11.0047 11.0111 15.9119 11.0111 21.9922C11.0111 28.0726 15.9182 32.9797 21.9986 32.9797C28.0789 32.9797 32.9861 28.0726 32.9861 21.9922C32.9861 15.9119 28.0789 11.0047 21.9986 11.0047ZM21.9986 29.1333C18.0664 29.1333 14.8575 25.9244 14.8575 21.9922C14.8575 18.0601 18.0664 14.8511 21.9986 14.8511C25.9307 14.8511 29.1397 18.0601 29.1397 21.9922C29.1397 25.9244 25.9307 29.1333 21.9986 29.1333ZM33.4361 7.994C32.0164 7.994 30.87 9.14043 30.87 10.5601C30.87 11.9797 32.0164 13.1261 33.4361 13.1261C34.8557 13.1261 36.0022 11.9851 36.0022 10.5601C36.0026 10.223 35.9365 9.8891 35.8077 9.57758C35.6789 9.26606 35.4899 8.98301 35.2515 8.74465C35.0131 8.50628 34.7301 8.31728 34.4186 8.18847C34.1071 8.05967 33.7732 7.99358 33.4361 7.994ZM43.4164 21.9922C43.4164 19.0351 43.4432 16.1047 43.2772 13.1529C43.1111 9.72436 42.3289 6.6815 39.8218 4.17436C37.3093 1.66186 34.2718 0.885076 30.8432 0.719004C27.8861 0.552933 24.9557 0.579718 22.0039 0.579718C19.0468 0.579718 16.1164 0.552933 13.1647 0.719004C9.73608 0.885076 6.69322 1.66722 4.18608 4.17436C1.67358 6.68686 0.896794 9.72436 0.730723 13.1529C0.564651 16.1101 0.591437 19.0404 0.591437 21.9922C0.591437 24.944 0.564651 27.8797 0.730723 30.8315C0.896794 34.2601 1.67894 37.3029 4.18608 39.8101C6.69858 42.3226 9.73608 43.0994 13.1647 43.2654C16.1218 43.4315 19.0522 43.4047 22.0039 43.4047C24.9611 43.4047 27.8914 43.4315 30.8432 43.2654C34.2718 43.0994 37.3147 42.3172 39.8218 39.8101C42.3343 37.2976 43.1111 34.2601 43.2772 30.8315C43.4486 27.8797 43.4164 24.9494 43.4164 21.9922ZM38.7022 34.6244C38.3111 35.5994 37.8397 36.3279 37.0843 37.0779C36.3289 37.8333 35.6057 38.3047 34.6307 38.6958C31.8129 39.8154 25.1218 39.5636 21.9986 39.5636C18.8754 39.5636 12.1789 39.8154 9.36108 38.7011C8.38608 38.3101 7.65751 37.8386 6.90751 37.0833C6.15215 36.3279 5.68072 35.6047 5.28965 34.6297C4.17537 31.8065 4.42715 25.1154 4.42715 21.9922C4.42715 18.869 4.17537 12.1726 5.28965 9.35472C5.68072 8.37972 6.15215 7.65115 6.90751 6.90115C7.66287 6.15115 8.38608 5.67436 9.36108 5.28329C12.1789 4.169 18.8754 4.42079 21.9986 4.42079C25.1218 4.42079 31.8182 4.169 34.6361 5.28329C35.6111 5.67436 36.3397 6.14579 37.0897 6.90115C37.845 7.6565 38.3164 8.37972 38.7075 9.35472C39.8218 12.1726 39.57 18.869 39.57 21.9922C39.57 25.1154 39.8218 31.8065 38.7022 34.6244Z" fill="white"/>
</svg>
